<svg xmlns="http://www.w3.org/2000/svg" xmlns:xlink="http://www.w3.org/1999/xlink" width="80" height="80" viewBox="0 0 80 80">
    <defs>
        <path id="a" d="M0 0h80v80H0z"/>
    </defs>
    <g fill="none" fill-rule="evenodd">
        <mask id="b" fill="#fff">
            <use xlink:href="#a"/>
        </mask>
        <path fill="#000" d="M56.08 44.406l-.097-.105c-.09.038-.187.067-.272.117-4.939 2.89-9.88 5.777-14.803 8.696-.237.14-.431.566-.433.86-.029 3.905-.02 7.81-.017 11.716 0 .185.04.37.076.702L56.08 44.406m-32.164-.122l-.091.099 15.587 22.046c.036-.35.056-.45.056-.551.002-3.982-.009-7.965.014-11.947.003-.516-.254-.727-.635-.95-4.784-2.79-9.563-5.592-14.344-8.389-.19-.11-.391-.205-.587-.308m32.507-3.513l-15.928-6.976v16.289l15.928-9.313m-32.915-.006l15.884 9.299V33.808l-15.884 6.957m15.876-27.128L24.061 39.383c.288-.094.383-.117.47-.156 4.81-2.103 9.615-4.215 14.43-6.303.458-.198.514-.492.514-.913-.008-5.855-.005-11.71-.008-17.566 0-.194-.038-.388-.083-.808m16.679 25.82L40.525 13.611c-.044.275-.067.349-.067.423-.002 6.041.006 12.082-.015 18.123-.003.522.28.652.651.814 4.718 2.062 9.432 4.13 14.148 6.194.202.089.416.149.82.29M80 39.374v1.094c-.039.28-.104.559-.112.84-.212 6.824-1.997 13.22-5.566 19.03-6.936 11.29-17.028 17.766-30.211 19.358-1.21.146-2.432.205-3.648.304h-1.094c-.255-.04-.508-.106-.764-.114-6.798-.214-13.182-1.973-18.962-5.54C7.393 66.783.801 55.746.053 41.36-.313 34.28 1.21 27.508 4.667 21.304 12.036 8.082 23.358.956 38.476.066c6.42-.378 12.629.87 18.398 3.725 13.298 6.581 20.931 17.278 22.82 32.022.151 1.18.206 2.374.306 3.56" mask="url(#b)"/>
    </g>
</svg>
