<svg xmlns="http://www.w3.org/2000/svg" width="54" height="50" viewBox="0 0 54 50">
    <g fill="#3CF" fill-rule="nonzero">
        <path d="M43.251 13.239a15.351 15.351 0 0 0-4.8-8.804A15.362 15.362 0 0 0 28.06.4c-2.974 0-5.872.853-8.355 2.46a15.336 15.336 0 0 0-4.997 5.26 8.824 8.824 0 0 0-1.619-.152c-4.648 0-8.431 3.783-8.431 8.431 0 .602.065 1.181.175 1.75C1.826 20.336 0 23.857 0 27.609c0 3.029 1.126 5.97 3.182 8.3 2.11 2.384 4.9 3.794 7.874 3.958H20.548a1.47 1.47 0 0 0 1.477-1.476 1.47 1.47 0 0 0-1.477-1.476h-9.36c-4.473-.274-8.235-4.528-8.235-9.318a8.765 8.765 0 0 1 4.341-7.545c.624-.361.886-1.116.645-1.794a5.357 5.357 0 0 1-.328-1.88 5.489 5.489 0 0 1 5.48-5.48c.644 0 1.279.11 1.87.328a1.483 1.483 0 0 0 1.847-.754A12.494 12.494 0 0 1 28.072 3.33c6.452 0 11.778 4.833 12.39 11.242a1.475 1.475 0 0 0 1.225 1.312c4.867.831 8.541 5.326 8.541 10.455 0 5.435-4.276 10.16-9.547 10.564h-8.06a1.47 1.47 0 0 0-1.476 1.476c0 .82.656 1.476 1.477 1.476h8.224c3.335-.24 6.451-1.771 8.77-4.33a13.619 13.619 0 0 0 3.565-9.186c-.011-6.135-4.2-11.592-9.93-13.101z"/>
        <path d="M35.454 29.008c.58-.58.58-1.51 0-2.089l-7.82-7.819a1.494 1.494 0 0 0-1.038-.437c-.383 0-.766.153-1.039.437l-7.82 7.82c-.579.579-.579 1.508 0 2.088.285.284.668.438 1.04.438a1.44 1.44 0 0 0 1.039-.438l5.304-5.304V48.08c0 .82.656 1.476 1.476 1.476a1.47 1.47 0 0 0 1.476-1.476V23.704l5.304 5.304c.569.58 1.498.58 2.078 0z"/>
    </g>
</svg>
