<?xml version="1.0" encoding="utf-8"?>
<!-- Generator: Adobe Illustrator 22.0.1, SVG Export Plug-In . SVG Version: 6.00 Build 0)  -->
<svg version="1.1" id="Layer_1" xmlns="http://www.w3.org/2000/svg" xmlns:xlink="http://www.w3.org/1999/xlink" x="0px" y="0px"
	 viewBox="0 0 423.7 437.9" style="enable-background:new 0 0 423.7 437.9;" xml:space="preserve">
<style type="text/css">
	.st0{opacity:0.4;fill:#33CCFF;}
	.st1{fill:#0E7886;}
	.st2{clip-path:url(#SVGID_2_);fill:url(#SVGID_3_);}
	.st3{fill:#FBB429;}
	.st4{fill:none;stroke:#FFFFFF;stroke-width:6.0053;stroke-linecap:round;stroke-miterlimit:10;}
	.st5{fill:none;stroke:#FFFFFF;stroke-width:6.0053;stroke-linecap:round;stroke-miterlimit:10;stroke-dasharray:11,22,11,22;}
	
		.st6{fill:none;stroke:#FFFFFF;stroke-width:6.0053;stroke-linecap:round;stroke-miterlimit:10;stroke-dasharray:10.9999,22,11,22,11,22;}
	.st7{fill:#FF9D00;}
	.st8{opacity:0.21;fill:#FFC600;}
	.st9{fill:#FF6666;}
	.st10{fill:#FFC600;}
	.st11{fill:#FFDEA9;}
	.st12{fill:#DDB57A;}
	.st13{fill:#ABEDFF;}
	.st14{fill:#5FDDFF;}
	.st15{fill:#33CCFF;}
	.st16{fill:#FFFFFF;}
	.st17{fill:#DBDBDB;}
	.st18{fill:#C1C1C1;}
</style>
<g>
	<path class="st0" d="M218.7,437.9c112.9,0,205-92.1,205-205c0-112.9-92.1-205-205-205s-205,92.1-205,205S105.8,437.9,218.7,437.9
		L218.7,437.9z M218.7,437.9"/>
	<path class="st1" d="M218.7,130.1c100.2,0,181.4,81.2,181.4,181.4c0,6.3-0.3,12.5-0.9,18.6c-34.6,64.1-102.5,107.7-180.5,107.7
		c-78,0-145.8-43.6-180.5-107.7c-0.6-6.1-0.9-12.3-0.9-18.6C37.3,211.4,118.5,130.1,218.7,130.1L218.7,130.1z"/>
	<g>
		<defs>
			<path id="SVGID_1_" d="M218.7,130.1c100.2,0,181.4,81.2,181.4,181.4c0,6.3-0.3,12.5-0.9,18.6c-34.6,64.1-102.5,107.7-180.5,107.7
				c-78,0-145.8-43.6-180.5-107.7c-0.6-6.1-0.9-12.3-0.9-18.6C37.3,211.4,118.5,130.1,218.7,130.1L218.7,130.1z"/>
		</defs>
		<clipPath id="SVGID_2_">
			<use xlink:href="#SVGID_1_"  style="overflow:visible;"/>
		</clipPath>
		<linearGradient id="SVGID_3_" gradientUnits="userSpaceOnUse" x1="115.6972" y1="464.6597" x2="319.8955" y2="110.9778">
			<stop  offset="0" style="stop-color:#33CCFF"/>
			<stop  offset="1" style="stop-color:#00ACA0"/>
		</linearGradient>
		<path class="st2" d="M-23.3,160.4c0,0,8.1-5.6,5.6,0c-2.5,5.6-7.5,9.4-8.1,6.3C-26.4,163.5-23.3,160.4-23.3,160.4z M-2.9,162.9
			c2.5-3.4-1.7-17.6-13.4-19.3s2.5,9.2,5,12.6c2.5,3.4-5.7,10.1-5.9,10.9C-18.8,174.6-5.4,166.2-2.9,162.9z M358.2,137.7
			c-7.6,2.5-0.8,10.9-5.9,7.6c-5-3.4-21-1.7-12.6,3.4c8.4,5,8.4,6.7,10.1,16.8c1.7,10.1-23.5-6.7-19.3-14.3
			c4.2-7.6-0.8-10.9-9.2-10.9c-8.4,0,2.5,4.2-0.8,7.6c-3.4,3.4-22.7-1.7-23.5,0c-0.8,1.7-5,10.1-5,10.1c24.3-5,31.9,31.9,22.7,33.6
			c-9.2,1.7-9.2,3.4-10.1,10.1c-0.8,6.7,16.8,8.4,7.6,16.8c-9.2,8.4,1.7-5.9-14.3-15.1c-16-9.2-24.3,4.2-7.6,12.6
			c16.8,8.4,10.9,35.3-5.9,38.6c-16.8,3.4-16,5.9-16,10.9s15.1,5.9,9.2,21c-5.9,15.1-13.4,3.4-16.8,0c-3.4-3.4-5,10.9,0,13.4
			c5,2.5,10.9,30.2,13.4,36.9c2.5,6.7,26.9,6.7,7.6,8.4c-19.3,1.7-52.9-46.2-38.6-42.8c14.3,3.4,15.1-26,5-26.9
			c-10.1-0.8-14.3-7.6-16.8-15.1c-2.5-7.6-5-5-5-5c-21,0-13.4,19.3-24.3,38.6c-10.9,19.3-17.6-26.9-37.8-43.7
			c-20.2-16.8-31.1-10.1-31.1-10.1s25,16.8,8.4,27.7c-29.4,19.3-31.9,16-34.4,10.9c-2.5-5-20.2-47-25.2-40.3
			c-5,6.7,27.7,49.5,27.7,49.5c1,1,12.4-4.4,17.6-3.4c21,4.2-25.2,48.7-45.3,108.3c-20.2,59.6-50.4,38.6-57.9-32.7
			s-35.3-34.4-64.7-68c-29.4-33.6,16.8-74.7,16.8-74.7s4.2-3.4,5-5.9c0.8-2.5-21-25.2-1.7-21.8c19.3,3.4,12.6-10.1,10.9-10.9
			c-1.7-0.8-13.4-4.2,0-4.2c13.4,0,20.2-15.1,23.5-21.8c3-6,8.6,1.3,9.8,3l0.2,0.3c0,0-0.1-0.1-0.2-0.3l-5.6-8.1
			c-17.6,5.9-18.5-2.5,3.4-22.7c21.8-20.2,57.9,1.7,57.9,1.7c17.6-8.4,40.3-6.7,40.3-6.7s-4.2-13.4,2.5-9.2
			c6.7,4.2,11.8,2.5,11.8,2.5s17.6-12.6,42.8-11.8c25.2,0.8,17.6,10.9,33.6,8.4c16-2.5,20.2,5,37.8,3.4c17.6-1.7,11.8,3.4,29.4,1.7
			c17.6-1.7,20.2,3.4,20.2,3.4l36.9,1.7C334.6,120.1,365.7,135.2,358.2,137.7z M19.8,157.8c0,4.2,13.4,0.8,19.3,0.8s3.4-5.9,4.2-8.4
			c0.8-2.5,2.5,2.5,5,0.8c2.5-1.7-2.5-3.4-2.5-5s9.2,0,12.6-2.5c3.4-2.5-5.9-0.8-13.4,0c-7.6,0.8-5-5-5.9-5.9
			c-0.8-0.8,11.8-8.4,6.7-9.2c-5-0.8-4.2,2.5-10.9,7.6c-6.7,5,0,7.6,0,7.6c-8.4,7.6,2.5,2.5-4.2,9.2C24,159.5,19.8,153.7,19.8,157.8
			z M67.6,211.6c-11.8,0-12.6-9.2-5.9-11.8c6.7-2.5-10.1-5-10.1,8.4c0,13.4-7.6-16-20.2-19.3c-12.6-3.4,4.2,8.4,4.2,8.4
			s8.4,13.4-2.5,13.4s0-3.4,0-6.7c0-3.4-10.9-10.1-14.3-14.3s-20.2,12.6-20.2,12.6S-13,214.1,3,211.6c16-2.5,18.5,0,19.3,5.9
			c0.8,5.9,23.5,13.4,24.3,4.2c0.8-9.2,29.4,18.5,34.4,4.2C86.1,211.6,79.4,211.6,67.6,211.6z M90.3,191.4
			c-5.9-8.4-7.6-1.7-15.1-5.9c-7.6-4.2-10.1,0-10.1,0s-9.2,8.4-1.7,10.9c7.6,2.5,8.4-5,14.3-2.5S96.2,199.8,90.3,191.4z
			 M127.2,207.4c0,0-4.2-10.9-7.6-14.3c-3.4-3.4-4.2-3.4-0.8-7.6c3.4-4.2-2.5-5.9-9.2-1.7c-6.7,4.2,4.2,13.4,4.2,13.4
			s3.4,1.7,1.7,4.2c-1.7,2.5,0.8,7.6,7.6,8.4C129.8,210.7,127.2,207.4,127.2,207.4z M138.2,183.9c-4.2-5-5,3.4-5,3.4
			C137.3,194,142.4,188.9,138.2,183.9z M23.7,155.8l0.2,0.3C24,156.2,23.9,156,23.7,155.8z M133.1,187.2c4.2,6.7,9.2,1.7,5-3.4
			C134,178.8,133.1,187.2,133.1,187.2z M133.1,187.2c4.2,6.7,9.2,1.7,5-3.4C134,178.8,133.1,187.2,133.1,187.2z M107.1,394.6
			c7.6,1.7,2.5,3.4,12.6-16c10.1-19.3,1.7-26.9,1.7-21.8c0,5-16,13.4-14.3,16.8s0,6.7,0,6.7S99.5,392.9,107.1,394.6z M317,414.8
			c26,3.4,3.4,12.6,18.5,19.3c15.1,6.7,19.3,2.5,38.6-20.2c19.3-22.7-4.2-25.2-4.2-38.6c0-13.4-4.2-21-5.9-21s-5,10.9-5,16.8
			c0,5.9-18.5-2.5-12.6-7.6c5.9-5,4.2-7.6,4.2-7.6c-18.5-8.4-16.8,14.3-22.7,6.7s-17.6,12.6-33.6,18.5c-16,5.9-14.3,36.1-14.3,36.1
			C277.5,438.3,291,411.4,317,414.8z M338,450.9c0,0,8.4-3.4,7.6-6.7c-0.8-3.4-7.6-3.4-7.6-3.4S329.6,443.3,338,450.9z M306.1,303.9
			c0.8-6.7-9.2-9.2-21,10.1c-11.8,19.3,12.6,14.3,12.6,14.3C303.6,327.5,305.3,310.7,306.1,303.9z M314.5,278.8
			c6.7,0,0.8-10.9-6.7-14.3s0,14.3,0,14.3S307.8,278.8,314.5,278.8z M310.3,285.5c0,0,7.6,23.5,10.9,19.3c3.4-4.2,7.6-11.8-1.7-19.3
			S310.3,285.5,310.3,285.5z M312.8,321.6c6.7-0.8,15.1-13.4,5-5.9c-10.1,7.6-9.2,1.7-11.8,13.4c-2.5,11.8,11.8,5,11.8,5
			C319.5,330,306.1,322.4,312.8,321.6z M336.3,321.6c0,0,0.8,11.8,17.6,14.3c0,0,5.9,5,0,8.4s14.3,4.2,17.6-1.7c0,0,1.7,0.8,6.7,6.7
			s10.1,8.4,2.5-5.9c-7.6-14.3-23.5-18.5-23.5-18.5s-7.6,7.6-10.9,4.2S342.2,314.9,336.3,321.6z M323.7,230.9
			c0,0,1.7-10.9,11.8-12.6c10.1-1.7,4.2-17.6,0-19.3c-4.2-1.7-7.6-5.9-1.7-5.9s12.6-5.9,7.6-5.9s-11.8,0.8-13.4-3.4
			c-1.7-4.2-3.4,9.2-0.8,11.8c2.5,2.5,8.4,14.3-3.4,18.5C312,218.3,319.5,235.9,323.7,230.9z M435.1,448.3c3.3-1.3,10.4-8.5,3.9-7.2
			c-6.5,1.3-9.1,7.8-17.6,9.8s-7.8,7.2-7.8,7.2C411.6,461.9,431.8,449.6,435.1,448.3z M448.4,433.6c-2,5.2,2,3.9,4.6,3.3
			s0-16.3,0-16.3C447.8,418.6,450.4,428.4,448.4,433.6z M421.6,432.1L421.6,432.1c0,0.1,0,0.1,0.1,0.1L421.6,432.1z"/>
	</g>
	<g>
		<g>
			<path class="st4" d="M335,400.9c0,0-2.1,0.9-5.8,2.4"/>
			<path class="st5" d="M308.5,410.7c-14.3,4.6-33.2,9.8-53.4,12.9"/>
			<path class="st6" d="M244.1,424.9c-50.7,5.4-105.9-5.2-117.3-72.1c-9.5-55.5,31.7-94.6,54.6-111.6"/>
			<path class="st4" d="M190.5,235c3.4-2.2,5.4-3.3,5.4-3.3"/>
		</g>
	</g>
	<g>
		<path class="st7" d="M40.8,66.7l37.6-13.6c-6.1-14.8-22-49.7-36.7-50.3c-0.7,0.2-1.5,0.5-2.2,0.7c-1.2,0.4-2.3,0.9-3.4,1.4
			C23.1,23.2,36.5,56.9,40.8,66.7z"/>
		<path class="st8" d="M3.6,80.2l1.3-0.5L3.2,79C3.3,79.4,3.4,79.8,3.6,80.2z"/>
		<path class="st9" d="M110.4,27.8C96.1,5.2,68-5.5,41.7,2.8c14.7,0.6,30.6,35.5,36.7,50.3l24.2-8.8l11.9-4.3l1-2
			C114.1,34.4,112.4,31,110.4,27.8z"/>
		<path class="st10" d="M36.1,4.9C11.2,15.7-3,41.7,0.5,67.8C1,71.5,1.9,75.3,3.2,79l1.7,0.8l11.9-4.3l24.1-8.7
			C36.5,56.9,23.1,23.2,36.1,4.9z"/>
		<polygon class="st11" points="80.3,92.1 78.3,96.3 64.5,58.2 56.1,61.2 70.3,100.5 16.8,75.4 4.8,79.8 79.6,114.8 79.7,114.6 
			75.5,103 		"/>
		<polygon class="st11" points="79.9,114.1 79.7,114.6 79.9,115.2 		"/>
		<polygon class="st12" points="102.7,44.4 80.3,92.1 75.5,103 79.7,114.6 79.9,114.1 114.6,40 		"/>
		<g>
			<g>
				<path id="XMLID_546_" class="st13" d="M101.3,161.2c-16.7,6-35.9-4.5-42.8-23.6s1-39.5,17.7-45.5s35.9,4.5,42.8,23.6
					C125.9,134.8,118,155.2,101.3,161.2"/>
				<path id="XMLID_545_" class="st14" d="M58.5,137.6c-6.4-17.7-0.1-36.4,14.1-43.9c-1.3,0.3-2.5,0.6-3.8,1.1
					c-16.7,6-24.7,26.4-17.7,45.5s26.1,29.7,42.8,23.6c1.3-0.5,2.5-1,3.6-1.6C81.8,165.6,64.9,155.3,58.5,137.6"/>
				<path id="XMLID_544_" class="st15" d="M61.9,144.8l-7.4,2.7c0.5,0.8,0.9,1.5,1.5,2.3l7.4-2.7C62.8,146.3,62.3,145.6,61.9,144.8"
					/>
				<path id="XMLID_543_" class="st15" d="M65.8,150.3l-7.4,2.7c0.6,0.7,1.3,1.4,1.9,2.1l7.4-2.7C67.1,151.8,66.5,151.1,65.8,150.3"
					/>
				<path id="XMLID_542_" class="st15" d="M56.1,125.9l-7.4,2.7c0.1,0.9,0.1,1.8,0.2,2.7l7.4-2.7C56.2,127.7,56.1,126.8,56.1,125.9"
					/>
				<path id="XMLID_541_" class="st15" d="M56.3,118.9l-7.4,2.7c-0.1,1-0.2,1.9-0.2,2.9l7.4-2.7C56.1,120.8,56.2,119.8,56.3,118.9"
					/>
				<path id="XMLID_540_" class="st15" d="M58.6,109.6l-7.4,2.7c-0.4,1-0.8,2.1-1.1,3.2l7.4-2.7C57.9,111.7,58.2,110.7,58.6,109.6"
					/>
				<path id="XMLID_539_" class="st15" d="M64,100.7l-7.4,2.7c-1,1.2-1.9,2.4-2.7,3.8l7.4-2.7C62,103.2,63,101.9,64,100.7"/>
				<path id="XMLID_538_" class="st15" d="M72.3,156.4l-7.4,2.7c0.9,0.6,1.8,1.3,2.7,1.8l7.4-2.7C74.1,157.6,73.2,157,72.3,156.4"/>
				<path id="XMLID_537_" class="st15" d="M72.5,163.3c1.3,0.5,2.7,1,4,1.3l7.4-2.7c-1.4-0.4-2.7-0.8-4-1.3L72.5,163.3z"/>
				<path id="XMLID_536_" class="st15" d="M98.9,154.4l-0.1,0c-0.9,0.3-1.8,0.6-2.6,0.8c-0.7,0.2-1.4-0.3-1.6-1
					c-0.2-0.7,0.3-1.4,1-1.6c0.8-0.2,1.6-0.4,2.3-0.7c0.7-0.2,1.5,0.1,1.7,0.8C99.9,153.5,99.6,154.2,98.9,154.4 M105.6,150.5
					c-0.5,0.2-1.1,0-1.4-0.4c-0.5-0.6-0.4-1.4,0.1-1.9c0.6-0.5,1.2-1.1,1.8-1.7c0.5-0.5,1.3-0.6,1.9-0.1c0.5,0.5,0.6,1.3,0.1,1.9
					c-0.6,0.7-1.3,1.3-2,1.9C105.9,150.4,105.8,150.5,105.6,150.5 M88.6,155.6c-0.2,0.1-0.4,0.1-0.6,0.1c-0.9-0.1-1.8-0.3-2.7-0.5
					c-0.7-0.2-1.1-0.9-1-1.6c0.2-0.7,0.9-1.1,1.6-1c0.8,0.2,1.6,0.3,2.4,0.4c0.7,0.1,1.2,0.7,1.1,1.5
					C89.4,155.1,89,155.5,88.6,155.6 M111.8,142.2c-0.3,0.1-0.7,0.1-1,0c-0.7-0.3-0.9-1.1-0.6-1.7c0.3-0.7,0.7-1.5,0.9-2.3
					c0.2-0.7,1-1,1.7-0.8c0.7,0.2,1,1,0.8,1.7c-0.3,0.9-0.6,1.7-1,2.5C112.4,141.9,112.1,142.1,111.8,142.2 M78.8,152.2
					c-0.4,0.1-0.8,0.1-1.1-0.1c-0.8-0.5-1.5-1-2.3-1.5c-0.6-0.4-0.7-1.2-0.3-1.8c0.4-0.6,1.2-0.7,1.8-0.3c0.7,0.5,1.4,1,2.1,1.4
					c0.6,0.4,0.8,1.2,0.5,1.8C79.3,151.9,79.1,152.1,78.8,152.2 M114.3,132.2c-0.2,0.1-0.3,0.1-0.5,0.1c-0.7,0-1.3-0.7-1.2-1.4
					c0.1-0.8,0.1-1.7,0.1-2.5c0-0.7,0.6-1.3,1.3-1.3c0.7,0,1.3,0.6,1.3,1.3c0,0.9,0,1.8-0.1,2.7C115.1,131.6,114.8,132,114.3,132.2
					 M71,145.4c-0.5,0.2-1.1,0-1.5-0.4c-0.6-0.7-1.1-1.4-1.6-2.2c-0.4-0.6-0.2-1.4,0.4-1.8c0.6-0.4,1.4-0.2,1.8,0.4
					c0.5,0.7,1,1.4,1.5,2c0.5,0.6,0.4,1.4-0.2,1.8C71.3,145.3,71.2,145.3,71,145.4 M113.2,121.9
					C113.2,121.9,113.2,121.9,113.2,121.9c-0.8,0.2-1.5-0.2-1.7-0.9c-0.2-0.8-0.5-1.5-0.7-2.3c-0.2-0.7,0.1-1.5,0.8-1.7
					c0.7-0.2,1.4,0.1,1.7,0.7l0,0.1c0.3,0.8,0.6,1.7,0.8,2.5C114.2,121,113.9,121.7,113.2,121.9 M66,136.3c-0.7,0.2-1.4-0.1-1.7-0.8
					l0,0c-0.3-0.8-0.6-1.7-0.8-2.6c-0.2-0.7,0.2-1.4,0.9-1.6c0.7-0.2,1.4,0.2,1.6,0.9c0.2,0.8,0.5,1.6,0.7,2.4
					C67,135.3,66.6,136.1,66,136.3 M108.9,112.5c-0.6,0.2-1.2,0-1.5-0.5c-0.5-0.7-1-1.4-1.5-2c-0.5-0.6-0.4-1.4,0.2-1.8
					c0.6-0.5,1.4-0.4,1.8,0.2c0.6,0.7,1.1,1.4,1.6,2.2c0.4,0.6,0.2,1.4-0.4,1.8C109.1,112.4,109,112.4,108.9,112.5 M64,126.2
					c-0.1,0-0.3,0.1-0.4,0.1c-0.7,0-1.3-0.6-1.3-1.3c0-0.9,0-1.8,0.1-2.7c0-0.7,0.7-1.3,1.4-1.2c0.7,0,1.3,0.7,1.2,1.4
					c-0.1,0.8-0.1,1.7-0.1,2.5C64.9,125.5,64.6,126,64,126.2 M101.7,105c-0.4,0.1-0.9,0.1-1.2-0.2c-0.7-0.5-1.4-0.9-2.1-1.4
					c-0.6-0.4-0.8-1.2-0.5-1.8c0.4-0.6,1.2-0.8,1.8-0.5c0.8,0.5,1.5,1,2.3,1.5c0.6,0.4,0.7,1.2,0.3,1.8
					C102.2,104.8,102,104.9,101.7,105 M65.6,115.9c-0.3,0.1-0.6,0.1-0.9,0c-0.7-0.2-1-1-0.8-1.7c0.3-0.9,0.6-1.7,1-2.5
					c0.3-0.7,1.1-0.9,1.7-0.6c0.7,0.3,0.9,1.1,0.6,1.7c-0.3,0.7-0.7,1.5-0.9,2.3C66.3,115.5,66,115.8,65.6,115.9 M92.3,100.6
					c-0.2,0.1-0.5,0.1-0.7,0c-0.8-0.2-1.6-0.3-2.4-0.4c-0.7-0.1-1.2-0.7-1.1-1.5c0.1-0.7,0.7-1.2,1.5-1.1c0.9,0.1,1.8,0.3,2.7,0.5
					c0.7,0.2,1.1,0.9,1,1.6C93.1,100.2,92.7,100.5,92.3,100.6 M71,107.1c-0.5,0.2-1,0.1-1.3-0.3c-0.5-0.5-0.6-1.3-0.1-1.9
					c0.6-0.7,1.3-1.3,2-1.9c0.6-0.5,1.4-0.4,1.9,0.1c0.5,0.6,0.4,1.4-0.1,1.9c-0.6,0.5-1.2,1.1-1.8,1.7
					C71.3,106.9,71.1,107,71,107.1 M82,100.6c0,0-0.1,0-0.1,0c-0.8,0.2-1.5,0.4-2.3,0.7c-0.7,0.2-1.5-0.1-1.7-0.8
					c-0.2-0.7,0.1-1.4,0.8-1.7l0.1,0c0.8-0.3,1.7-0.6,2.6-0.8c0.7-0.2,1.4,0.3,1.6,1C83,99.7,82.7,100.4,82,100.6"/>
				<path id="XMLID_535_" class="st15" d="M59,138.9l-7.4,2.7c0.3,0.8,0.7,1.6,1,2.4l7.4-2.7C59.6,140.5,59.3,139.7,59,138.9"/>
				<path id="XMLID_534_" class="st15" d="M57,132.6l-7.4,2.7c0.2,0.9,0.4,1.7,0.7,2.6l7.4-2.7C57.4,134.3,57.2,133.4,57,132.6"/>
			</g>
			<g>
				<path class="st15" d="M97.6,131.6c-0.3,0.6-0.6,1.2-0.8,1.8c0,0,0,0,0,0c0,0.1-0.1,0.3-0.2,0.4c-0.1,0.3-0.2,0.6-0.3,1
					c-0.1,0.4-0.2,0.8-0.3,1.2c-0.9,3.1-2.6,5.7-5,7.6c1.4,0,2.8-0.3,4.2-0.8c0,0,0.1,0,0.1,0c0.1-0.1,0.3-0.1,0.4-0.2
					c1.5-0.6,2.8-1.4,3.9-2.4c1.2-1.1,2.1-2.4,2.7-3.9c0.6-1.5,1-3.2,1-5c0.1-1.6-0.1-3.3-0.6-5.1
					C100.5,127.5,98.8,129.3,97.6,131.6z"/>
				<path class="st15" d="M96.1,112.3c-0.6-0.6-1.2-1.1-1.9-1.5c-0.6-0.4-1.3-0.8-2-1.1c-1.4-0.6-2.9-0.9-4.4-0.9
					c-1.5,0-3,0.2-4.5,0.8c-2.1,0.8-3.8,1.9-5.2,3.3c-0.7,0.7-1.3,1.5-1.7,2.4c0,0,0,0,0,0c0,0-0.1,0.1-0.1,0.1
					c0,0.1-0.1,0.1-0.1,0.2c-0.1,0.1-0.1,0.2-0.2,0.4c0,0.1-0.1,0.1-0.1,0.2c-0.1,0.1-0.1,0.3-0.2,0.4c0,0.1,0,0.1-0.1,0.2
					c-0.1,0.2-0.2,0.4-0.2,0.6c0,0,0,0,0,0c-0.1,0.2-0.2,0.5-0.2,0.7c-0.1,0.2-0.1,0.4-0.2,0.6c0,0.1,0,0.1-0.1,0.2c0,0,0,0,0,0v0
					c-0.4,1.7-0.6,3.5-0.5,5.5c0.1,2.2,0.6,4.6,1.5,6.9c0.8,2.3,1.9,4.4,3.3,6.1c1.3,1.8,2.8,3.2,4.5,4.3c0.9,0.5,1.8,1,2.7,1.3
					c3-1.1,5.4-3.3,7-6c-0.1,0-0.2,0.1-0.2,0.1c-1.3,0.5-2.6,0.6-3.8,0.3c-1.2-0.3-2.2-0.8-3.2-1.6c-0.9-0.8-1.8-1.8-2.5-2.9
					c-0.7-1.2-1.3-2.4-1.8-3.7c-0.5-1.4-0.9-2.8-1.1-4.2c-0.1-0.8-0.2-1.5-0.1-2.3c0-0.1,0-0.3,0-0.4c0,0,0,0,0,0c0-0.1,0-0.3,0-0.4
					c0,0,0-0.1,0-0.1c0-0.1,0-0.2,0-0.3c0-0.1,0-0.3,0.1-0.4c0.2-1.2,0.7-2.3,1.4-3.3c0.7-0.9,1.8-1.7,3.1-2.2c0.1,0,0.1,0,0.2-0.1
					v0c0.7-0.2,1.4-0.3,2.1-0.3c0.8,0,1.5,0.2,2.2,0.5c0.7,0.3,1.4,0.7,2,1.3c0,0,0,0,0,0c0,0,0,0,0,0c1.2,1.1,2.7,1.5,4.1,1
					l3.2-1.2C98.3,115,97.3,113.5,96.1,112.3z"/>
			</g>
		</g>
	</g>
	<g>
		<path class="st7" d="M363.2,274.6l25.4,3.4c0.9-10.2,2.2-34.8-6-39.5c-0.5-0.1-1-0.2-1.5-0.2c-0.8-0.1-1.6-0.2-2.4-0.2
			C365.9,244.6,363.6,267.8,363.2,274.6z"/>
		<path class="st8" d="M337.9,271.3l0.9,0.1l-0.7-0.9C338,270.7,338,271,337.9,271.3z"/>
		<path class="st9" d="M414.3,273.1c-1.4-17.1-14.3-31.6-31.7-34.6c8.2,4.7,6.9,29.3,6,39.5l16.4,2.2l8.1,1.1l1.1-0.9
			C414.5,277.9,414.5,275.4,414.3,273.1z"/>
		<path class="st10" d="M378.7,238c-17.3-1.2-33.1,9.4-38.8,25.3c-0.8,2.3-1.4,4.6-1.8,7.1l0.7,0.9l8.1,1.1l16.3,2.2
			C363.6,267.8,365.9,244.6,378.7,238z"/>
		<polygon class="st11" points="378.1,300.7 375.8,302.5 379.2,276.7 373.5,276 369.9,302.6 346.9,272.4 338.8,271.4 371,313.4 
			371.1,313.4 372.1,305.5 		"/>
		<polygon class="st11" points="371.4,313.1 371.1,313.4 371,313.8 		"/>
		<polygon class="st12" points="405,280.2 378.1,300.7 372.1,305.5 371.1,313.4 371.4,313.1 413,281.2 		"/>
		<g>
			<g>
				<path id="XMLID_559_" class="st13" d="M369.6,346.3c-11.3-1.5-19.1-13.2-17.4-26.1s12.3-22.2,23.6-20.7
					c11.3,1.5,19.1,13.2,17.4,26.1S380.9,347.8,369.6,346.3"/>
				<path id="XMLID_558_" class="st14" d="M352.2,320.2c1.6-11.9,10.7-20.8,21-20.8c-0.8-0.2-1.6-0.4-2.5-0.5
					c-11.3-1.5-21.9,7.7-23.6,20.7c-1.7,12.9,6.1,24.6,17.4,26.1c0.8,0.1,1.7,0.2,2.5,0.2C357.2,343,350.6,332.2,352.2,320.2"/>
				<path id="XMLID_557_" class="st15" d="M352,325.3l-5-0.7c0,0.6,0.1,1.2,0.2,1.7l5,0.7C352.1,326.4,352.1,325.9,352,325.3"/>
				<path id="XMLID_556_" class="st15" d="M352.6,329.6l-5-0.7c0.1,0.6,0.3,1.2,0.5,1.8l5,0.7C352.9,330.8,352.8,330.2,352.6,329.6"
					/>
				<path id="XMLID_555_" class="st15" d="M354.3,312.8l-5-0.7c-0.2,0.5-0.5,1.1-0.7,1.6l5,0.7C353.8,313.9,354.1,313.4,354.3,312.8
					"/>
				<path id="XMLID_554_" class="st15" d="M356.5,308.9l-5-0.7c-0.3,0.5-0.7,1-1,1.6l5,0.7C355.8,309.9,356.2,309.4,356.5,308.9"/>
				<path id="XMLID_553_" class="st15" d="M360.6,304.3l-5-0.7c-0.5,0.5-1.1,1-1.6,1.5l5,0.7C359.5,305.3,360,304.8,360.6,304.3"/>
				<path id="XMLID_552_" class="st15" d="M366.2,300.8l-5-0.7c-0.9,0.4-1.8,0.8-2.7,1.3l5,0.7C364.4,301.7,365.3,301.2,366.2,300.8
					"/>
				<path id="XMLID_551_" class="st15" d="M354.5,335l-5-0.7c0.3,0.6,0.6,1.2,1,1.8l5,0.7C355.2,336.2,354.8,335.6,354.5,335"/>
				<path id="XMLID_550_" class="st15" d="M352.6,339c0.6,0.7,1.2,1.3,1.9,2l5,0.7c-0.7-0.6-1.3-1.3-1.9-2L352.6,339z"/>
				<path id="XMLID_549_" class="st15" d="M370.3,341.8L370.3,341.8c-0.7-0.1-1.2-0.2-1.8-0.3c-0.5-0.1-0.7-0.6-0.6-1
					c0.1-0.5,0.6-0.7,1-0.6c0.5,0.1,1,0.2,1.5,0.3c0.5,0.1,0.8,0.5,0.8,1C371.1,341.5,370.7,341.8,370.3,341.8 M375.2,341.5
					c-0.3,0-0.6-0.3-0.7-0.6c-0.1-0.5,0.2-0.9,0.6-1c0.5-0.1,1-0.3,1.5-0.4c0.4-0.2,0.9,0.1,1.1,0.5c0.2,0.4-0.1,0.9-0.5,1.1
					c-0.6,0.2-1.1,0.4-1.7,0.5C375.4,341.5,375.3,341.5,375.2,341.5 M364,339.4c-0.1,0-0.3-0.1-0.4-0.1c-0.5-0.3-1-0.7-1.4-1.1
					c-0.4-0.3-0.4-0.8-0.1-1.2c0.3-0.4,0.8-0.4,1.2-0.1c0.4,0.3,0.8,0.7,1.2,1c0.4,0.3,0.5,0.8,0.2,1.2
					C364.6,339.3,364.3,339.4,364,339.4 M381.2,338.6c-0.2,0-0.4-0.1-0.6-0.3c-0.3-0.4-0.2-0.9,0.1-1.2c0.4-0.3,0.8-0.7,1.2-1
					c0.3-0.3,0.9-0.3,1.2,0c0.3,0.3,0.3,0.9,0,1.2c-0.4,0.4-0.9,0.8-1.3,1.1C381.7,338.6,381.4,338.7,381.2,338.6 M359.5,334.5
					c-0.2,0-0.5-0.2-0.6-0.4c-0.3-0.5-0.6-1-0.8-1.5c-0.2-0.4,0-0.9,0.4-1.1c0.4-0.2,0.9,0,1.1,0.4c0.2,0.5,0.5,0.9,0.8,1.4
					c0.2,0.4,0.1,0.9-0.3,1.2C359.9,334.5,359.7,334.6,359.5,334.5 M385.6,333.6c-0.1,0-0.2-0.1-0.3-0.1c-0.4-0.2-0.5-0.8-0.3-1.2
					c0.3-0.5,0.5-0.9,0.8-1.4c0.2-0.4,0.7-0.6,1.1-0.4c0.4,0.2,0.6,0.7,0.4,1.1c-0.3,0.5-0.5,1-0.8,1.5
					C386.3,333.5,385.9,333.7,385.6,333.6 M357.1,328.3c-0.3,0-0.6-0.3-0.7-0.7c-0.1-0.6-0.2-1.1-0.3-1.7c-0.1-0.5,0.3-0.9,0.7-0.9
					c0.5-0.1,0.9,0.3,0.9,0.7c0.1,0.5,0.1,1.1,0.2,1.6c0.1,0.5-0.2,0.9-0.7,1C357.2,328.4,357.1,328.4,357.1,328.3 M388,327.5
					C388,327.4,388,327.4,388,327.5c-0.5-0.1-0.8-0.6-0.7-1c0.1-0.5,0.2-1,0.3-1.5c0.1-0.5,0.5-0.8,1-0.8c0.5,0.1,0.8,0.5,0.7,0.9
					l0,0.1c-0.1,0.6-0.2,1.1-0.3,1.7C388.9,327.2,388.5,327.5,388,327.5 M356.8,321.7c-0.5-0.1-0.8-0.5-0.7-0.9l0,0
					c0.1-0.6,0.2-1.1,0.3-1.7c0.1-0.5,0.6-0.7,1-0.6c0.5,0.1,0.7,0.5,0.6,1c-0.1,0.5-0.2,1-0.3,1.6
					C357.7,321.4,357.3,321.7,356.8,321.7 M388.4,320.8c-0.4,0-0.7-0.3-0.7-0.7c-0.1-0.5-0.1-1.1-0.2-1.6c-0.1-0.5,0.2-0.9,0.7-1
					c0.5-0.1,0.9,0.2,1,0.7c0.1,0.6,0.2,1.1,0.3,1.7c0.1,0.5-0.3,0.9-0.7,0.9C388.5,320.8,388.4,320.8,388.4,320.8 M358.8,315.3
					c-0.1,0-0.2,0-0.3-0.1c-0.4-0.2-0.6-0.7-0.4-1.1c0.3-0.5,0.5-1,0.8-1.5c0.2-0.4,0.8-0.5,1.2-0.3c0.4,0.2,0.5,0.8,0.3,1.2
					c-0.3,0.5-0.5,0.9-0.8,1.4C359.5,315.2,359.1,315.4,358.8,315.3 M386.5,314.4c-0.3,0-0.5-0.2-0.6-0.5c-0.2-0.5-0.5-0.9-0.8-1.4
					c-0.2-0.4-0.1-0.9,0.3-1.2c0.4-0.2,0.9-0.1,1.2,0.3c0.3,0.5,0.6,1,0.9,1.5c0.2,0.4,0,0.9-0.4,1.1
					C386.8,314.4,386.7,314.5,386.5,314.4 M362.7,310c-0.2,0-0.4-0.1-0.5-0.3c-0.3-0.3-0.3-0.9,0-1.2c0.4-0.4,0.9-0.8,1.3-1.1
					c0.4-0.3,0.9-0.2,1.2,0.2c0.3,0.4,0.2,0.9-0.2,1.2c-0.4,0.3-0.8,0.7-1.2,1C363.2,309.9,363,310,362.7,310 M382.4,309.2
					c-0.2,0-0.3-0.1-0.4-0.2c-0.4-0.3-0.8-0.7-1.2-1c-0.4-0.3-0.5-0.8-0.2-1.2c0.3-0.4,0.8-0.5,1.2-0.2c0.5,0.3,1,0.7,1.4,1.1
					c0.4,0.3,0.4,0.8,0.1,1.2C383,309.1,382.7,309.2,382.4,309.2 M368.4,306.5c-0.3,0-0.6-0.2-0.7-0.6c-0.2-0.4,0.1-0.9,0.5-1.1
					c0.6-0.2,1.1-0.4,1.7-0.5c0.5-0.1,0.9,0.2,1,0.6c0.1,0.5-0.2,0.9-0.6,1c-0.5,0.1-1,0.3-1.5,0.4
					C368.6,306.5,368.5,306.5,368.4,306.5 M376.6,306.1C376.5,306.1,376.5,306.1,376.6,306.1c-0.6-0.1-1.1-0.2-1.6-0.3
					c-0.5-0.1-0.8-0.5-0.7-0.9s0.5-0.8,0.9-0.7l0,0c0.6,0.1,1.1,0.2,1.7,0.3c0.5,0.1,0.7,0.6,0.6,1
					C377.4,305.9,377,306.2,376.6,306.1"/>
				<path id="XMLID_548_" class="st15" d="M352.1,321l-5-0.7c-0.1,0.6-0.1,1.1-0.1,1.7l5,0.7C352,322.2,352.1,321.6,352.1,321"/>
				<path id="XMLID_547_" class="st15" d="M352.9,316.9l-5-0.7c-0.1,0.5-0.3,1.1-0.4,1.7l5,0.7C352.6,318,352.7,317.4,352.9,316.9"
					/>
			</g>
			<g>
				<path class="st15" d="M376.3,328.3c-0.4,0.2-0.7,0.5-1,0.8c0,0,0,0,0,0c-0.1,0.1-0.1,0.1-0.2,0.2c-0.2,0.1-0.3,0.3-0.5,0.5
					c-0.2,0.2-0.3,0.4-0.5,0.6c-1.4,1.5-3.2,2.5-5.1,2.9c0.8,0.4,1.7,0.6,2.6,0.8c0,0,0,0,0.1,0c0.1,0,0.2,0,0.3,0
					c1,0.1,2,0,2.9-0.2c1-0.3,1.9-0.7,2.7-1.4c0.8-0.7,1.5-1.5,2.1-2.5c0.5-0.9,0.9-1.9,1.2-3.1
					C379.2,326.9,377.6,327.4,376.3,328.3z"/>
				<path class="st15" d="M381.1,316.9c-0.2-0.5-0.4-1-0.6-1.4c-0.2-0.4-0.5-0.8-0.8-1.2c-0.6-0.7-1.4-1.3-2.2-1.8
					c-0.9-0.5-1.8-0.8-2.8-0.9c-1.4-0.2-2.7-0.1-3.9,0.4c-0.6,0.2-1.2,0.5-1.7,0.8c0,0,0,0,0,0c0,0-0.1,0-0.1,0.1c0,0-0.1,0-0.1,0.1
					c-0.1,0-0.1,0.1-0.2,0.2c0,0-0.1,0-0.1,0.1c-0.1,0.1-0.1,0.1-0.2,0.2c0,0-0.1,0-0.1,0.1c-0.1,0.1-0.2,0.2-0.3,0.3c0,0,0,0,0,0
					c-0.1,0.1-0.2,0.2-0.3,0.3c-0.1,0.1-0.2,0.2-0.3,0.3c0,0-0.1,0.1-0.1,0.1c0,0,0,0,0,0l0,0c-0.7,0.8-1.4,1.8-1.9,3
					c-0.6,1.3-1,2.8-1.2,4.4c-0.2,1.6-0.2,3,0,4.5c0.2,1.4,0.7,2.7,1.3,3.8c0.3,0.6,0.7,1.1,1.1,1.5c2.1,0.2,4-0.3,5.8-1.4
					c-0.1,0-0.1,0-0.2,0c-0.9-0.1-1.7-0.4-2.2-0.9c-0.6-0.5-1-1.1-1.3-1.8c-0.3-0.7-0.5-1.5-0.6-2.4c-0.1-0.9,0-1.8,0.1-2.7
					c0.1-0.9,0.3-1.8,0.6-2.7c0.2-0.5,0.4-0.9,0.6-1.3c0-0.1,0.1-0.2,0.1-0.2c0,0,0,0,0,0c0-0.1,0.1-0.1,0.1-0.2c0,0,0,0,0-0.1
					c0-0.1,0.1-0.1,0.1-0.2c0.1-0.1,0.1-0.2,0.2-0.2c0.5-0.6,1.1-1.1,1.8-1.4c0.7-0.3,1.5-0.4,2.4-0.3c0,0,0.1,0,0.1,0v0
					c0.5,0.1,0.9,0.2,1.3,0.5c0.4,0.3,0.8,0.6,1.1,1c0.3,0.4,0.6,0.8,0.7,1.3c0,0,0,0,0,0c0,0,0,0,0,0c0.4,1,1.1,1.6,2,1.8l2.2,0.3
					C381.6,319.1,381.4,317.9,381.1,316.9z"/>
			</g>
		</g>
	</g>
	<g>
		<path class="st7" d="M43.9,347.6l20.5-2.7c-1.4-8.1-5.6-27.6-13-29.5c-0.4,0-0.8,0.1-1.2,0.1c-0.6,0.1-1.3,0.2-1.9,0.3
			C39.7,323.7,42.8,342.2,43.9,347.6z"/>
		<path class="st8" d="M23.5,350.3l0.7-0.1l-0.8-0.6C23.5,349.9,23.5,350.1,23.5,350.3z"/>
		<path class="st9" d="M83.4,335.6c-4.7-13-17.8-21.6-32-20.2c7.4,1.9,11.6,21.4,13,29.5l13.2-1.8l6.5-0.9l0.7-0.9
			C84.5,339.4,84,337.5,83.4,335.6z"/>
		<path class="st10" d="M48.3,315.9c-13.8,2.7-23.8,14.3-24.9,27.9c-0.2,1.9-0.1,3.9,0.1,5.9l0.8,0.6l6.5-0.9l13.1-1.7
			C42.8,342.2,39.7,323.7,48.3,315.9z"/>
		<polygon class="st11" points="61,364.8 59.6,366.7 56.8,345.9 52.2,346.5 55.1,368 30.7,349.4 24.2,350.2 58.2,376.2 58.2,376.1 
			57.4,369.8 		"/>
		<polygon class="st11" points="58.4,375.9 58.2,376.1 58.3,376.5 		"/>
		<polygon class="st12" points="77.6,343.2 61,364.8 57.4,369.8 58.2,376.1 58.4,375.9 84.1,342.3 		"/>
		<g>
			<g>
				<path id="XMLID_13_" class="st13" d="M64,402.1c-9.1,1.2-17.6-6.3-19-16.7c-1.4-10.4,4.9-19.8,14-21.1c9.1-1.2,17.6,6.3,19,16.7
					C79.4,391.5,73.1,400.9,64,402.1"/>
				<path id="XMLID_12_" class="st14" d="M45,385.4c-1.3-9.6,4-18.4,12-20.6c-0.7,0-1.4,0-2,0.1c-9.1,1.2-15.4,10.6-14,21.1
					c1.4,10.4,9.9,17.9,19,16.7c0.7-0.1,1.4-0.2,2-0.4C53.6,402.2,46.3,395.1,45,385.4"/>
				<path id="XMLID_11_" class="st15" d="M45.9,389.4l-4,0.5c0.1,0.4,0.3,0.9,0.5,1.3l4-0.5C46.2,390.3,46,389.9,45.9,389.4"/>
				<path id="XMLID_10_" class="st15" d="M47.3,392.7l-4,0.5c0.2,0.4,0.5,0.9,0.7,1.3l4-0.5C47.8,393.5,47.5,393.1,47.3,392.7"/>
				<path id="XMLID_9_" class="st15" d="M45,379.3l-4,0.5c-0.1,0.5-0.1,0.9-0.2,1.4l4-0.5C44.9,380.2,45,379.7,45,379.3"/>
				<path id="XMLID_8_" class="st15" d="M45.9,375.7l-4,0.5c-0.2,0.5-0.3,0.9-0.4,1.4l4-0.5C45.6,376.7,45.8,376.2,45.9,375.7"/>
				<path id="XMLID_7_" class="st15" d="M48.1,371.3l-4,0.5c-0.3,0.5-0.6,1-0.9,1.5l4-0.5C47.5,372.3,47.8,371.8,48.1,371.3"/>
				<path id="XMLID_6_" class="st15" d="M51.8,367.4l-4.1,0.5c-0.6,0.5-1.2,1-1.8,1.6l4-0.5C50.6,368.4,51.2,367.9,51.8,367.4"/>
				<path id="XMLID_5_" class="st15" d="M49.9,396.4l-4,0.5c0.4,0.4,0.8,0.8,1.2,1.2l4-0.5C50.6,397.3,50.3,396.9,49.9,396.4"/>
				<path id="XMLID_4_" class="st15" d="M49.2,400c0.6,0.4,1.2,0.8,1.9,1.1l4.1-0.5c-0.7-0.3-1.3-0.7-1.9-1.1L49.2,400z"/>
				<path id="XMLID_3_" class="st15" d="M63.6,398.4L63.6,398.4c-0.5,0.1-1,0.1-1.5,0.1c-0.4,0-0.7-0.3-0.7-0.7
					c0-0.4,0.3-0.7,0.7-0.7c0.4,0,0.8,0,1.3-0.1c0.4,0,0.7,0.2,0.8,0.6C64.2,398,63.9,398.4,63.6,398.4 M67.4,397.2
					c-0.3,0-0.6-0.1-0.7-0.4c-0.2-0.3-0.1-0.7,0.3-0.9c0.4-0.2,0.7-0.4,1.1-0.7c0.3-0.2,0.7-0.1,0.9,0.2c0.2,0.3,0.1,0.7-0.2,0.9
					c-0.4,0.3-0.8,0.5-1.2,0.7C67.5,397.1,67.5,397.2,67.4,397.2 M58.2,397.9c-0.1,0-0.2,0-0.3,0c-0.4-0.2-0.9-0.3-1.3-0.5
					c-0.3-0.2-0.5-0.6-0.3-0.9c0.2-0.3,0.6-0.5,0.9-0.3c0.4,0.2,0.8,0.3,1.2,0.5c0.4,0.1,0.5,0.5,0.4,0.9
					C58.7,397.7,58.4,397.8,58.2,397.9 M71.4,393.7c-0.2,0-0.4,0-0.5-0.1c-0.3-0.2-0.4-0.7-0.1-1c0.3-0.3,0.5-0.7,0.7-1.1
					c0.2-0.3,0.6-0.4,0.9-0.2c0.3,0.2,0.4,0.6,0.2,0.9c-0.2,0.4-0.5,0.8-0.8,1.2C71.8,393.6,71.6,393.6,71.4,393.7 M53.6,395.1
					c-0.2,0-0.4,0-0.6-0.2c-0.3-0.3-0.7-0.7-1-1c-0.2-0.3-0.2-0.7,0.1-1c0.3-0.2,0.7-0.2,1,0.1c0.3,0.3,0.6,0.6,0.9,0.9
					c0.3,0.3,0.3,0.7,0,1C53.9,395,53.8,395,53.6,395.1 M73.8,388.9c-0.1,0-0.2,0-0.3,0c-0.4-0.1-0.6-0.5-0.5-0.8
					c0.1-0.4,0.2-0.8,0.3-1.3c0.1-0.4,0.4-0.6,0.8-0.5c0.4,0.1,0.6,0.4,0.5,0.8c-0.1,0.5-0.2,0.9-0.3,1.4
					C74.3,388.6,74.1,388.8,73.8,388.9 M50.4,390.8c-0.3,0-0.6-0.1-0.7-0.4c-0.2-0.4-0.4-0.8-0.6-1.3c-0.1-0.3,0-0.7,0.4-0.9
					c0.3-0.1,0.7,0,0.9,0.4c0.2,0.4,0.3,0.8,0.5,1.2c0.2,0.3,0,0.7-0.3,0.9C50.6,390.7,50.5,390.7,50.4,390.8 M74.4,383.5
					C74.4,383.5,74.4,383.5,74.4,383.5c-0.4,0-0.7-0.3-0.8-0.6c0-0.4-0.1-0.8-0.1-1.2c0-0.4,0.2-0.7,0.6-0.8c0.4,0,0.7,0.2,0.8,0.6
					l0,0c0.1,0.5,0.1,0.9,0.1,1.3C75,383.2,74.7,383.5,74.4,383.5 M48.9,385.6c-0.4,0-0.7-0.2-0.8-0.6l0,0c-0.1-0.5-0.1-0.9-0.1-1.4
					c0-0.4,0.3-0.7,0.6-0.7c0.4,0,0.7,0.3,0.7,0.6c0,0.4,0.1,0.9,0.1,1.3C49.5,385.2,49.3,385.6,48.9,385.6 M73.2,378.3
					c-0.3,0-0.6-0.1-0.7-0.4c-0.2-0.4-0.3-0.8-0.5-1.2c-0.2-0.3,0-0.7,0.3-0.9c0.3-0.2,0.7,0,0.9,0.3c0.2,0.4,0.4,0.8,0.6,1.3
					c0.1,0.3,0,0.7-0.4,0.9C73.4,378.3,73.3,378.3,73.2,378.3 M49,380.3c-0.1,0-0.1,0-0.2,0c-0.4-0.1-0.6-0.4-0.5-0.8
					c0.1-0.5,0.2-0.9,0.3-1.4c0.1-0.4,0.5-0.6,0.8-0.5c0.4,0.1,0.6,0.5,0.5,0.8c-0.1,0.4-0.2,0.8-0.3,1.3
					C49.6,380,49.3,380.2,49,380.3 M70.4,373.7c-0.2,0-0.4,0-0.6-0.2c-0.3-0.3-0.6-0.6-0.9-0.9c-0.3-0.3-0.3-0.7,0-1
					c0.3-0.3,0.7-0.3,1,0c0.3,0.3,0.7,0.7,1,1c0.2,0.3,0.2,0.7-0.1,1C70.7,373.6,70.6,373.7,70.4,373.7 M51,375.3
					c-0.2,0-0.3,0-0.4-0.1c-0.3-0.2-0.4-0.6-0.2-0.9c0.2-0.4,0.5-0.8,0.8-1.2c0.2-0.3,0.7-0.4,1-0.1c0.3,0.2,0.4,0.7,0.1,1
					c-0.3,0.3-0.5,0.7-0.7,1.1C51.4,375.1,51.2,375.2,51,375.3 M66.2,370.5c-0.1,0-0.3,0-0.4-0.1c-0.4-0.2-0.8-0.3-1.2-0.5
					c-0.4-0.1-0.5-0.5-0.4-0.9c0.1-0.4,0.5-0.5,0.9-0.4c0.4,0.2,0.9,0.3,1.3,0.5c0.3,0.2,0.5,0.6,0.3,0.9
					C66.6,370.3,66.4,370.4,66.2,370.5 M54.7,371.4c-0.2,0-0.5-0.1-0.7-0.3c-0.2-0.3-0.1-0.7,0.2-0.9c0.4-0.3,0.8-0.5,1.2-0.7
					c0.3-0.2,0.7-0.1,0.9,0.3c0.2,0.3,0.1,0.7-0.3,0.9c-0.4,0.2-0.7,0.4-1.1,0.7C54.9,371.3,54.8,371.3,54.7,371.4 M61,369.3
					C60.9,369.3,60.9,369.3,61,369.3c-0.5,0-0.9,0-1.3,0.1c-0.4,0-0.7-0.2-0.8-0.6c0-0.4,0.2-0.7,0.6-0.8l0,0
					c0.5-0.1,0.9-0.1,1.4-0.1c0.4,0,0.7,0.3,0.7,0.7C61.6,369,61.3,369.3,61,369.3"/>
				<path id="XMLID_2_" class="st15" d="M45.1,386.1l-4,0.5c0.1,0.5,0.2,0.9,0.3,1.3l4-0.5C45.2,387,45.1,386.6,45.1,386.1"/>
				<path id="XMLID_1_" class="st15" d="M44.8,382.7l-4,0.5c0,0.5,0,0.9,0.1,1.4l4-0.5C44.8,383.6,44.8,383.2,44.8,382.7"/>
			</g>
			<g>
				<path class="st15" d="M65.4,386.7c-0.2,0.3-0.4,0.5-0.6,0.8c0,0,0,0,0,0c0,0.1-0.1,0.1-0.1,0.2c-0.1,0.1-0.2,0.3-0.3,0.4
					c-0.1,0.2-0.2,0.4-0.3,0.6c-0.8,1.4-2,2.6-3.4,3.3c0.7,0.1,1.4,0.1,2.2,0c0,0,0,0,0,0c0.1,0,0.2,0,0.2,0
					c0.8-0.1,1.6-0.4,2.2-0.8c0.7-0.4,1.3-1,1.8-1.7c0.5-0.7,0.8-1.5,1.1-2.4c0.2-0.8,0.3-1.7,0.3-2.7
					C67.4,384.9,66.3,385.7,65.4,386.7z"/>
				<path class="st15" d="M66.8,376.8c-0.2-0.4-0.5-0.7-0.8-1c-0.3-0.3-0.6-0.5-0.9-0.8c-0.6-0.4-1.4-0.8-2.1-0.9
					c-0.8-0.2-1.6-0.2-2.4-0.1c-1.1,0.2-2.1,0.5-3,1.1c-0.4,0.3-0.8,0.6-1.1,1c0,0,0,0,0,0c0,0,0,0-0.1,0.1c0,0,0,0.1-0.1,0.1
					c0,0.1-0.1,0.1-0.1,0.2c0,0,0,0.1-0.1,0.1c0,0.1-0.1,0.1-0.1,0.2c0,0,0,0-0.1,0.1c-0.1,0.1-0.1,0.2-0.2,0.3c0,0,0,0,0,0
					c-0.1,0.1-0.1,0.2-0.2,0.3c-0.1,0.1-0.1,0.2-0.2,0.3c0,0,0,0.1-0.1,0.1c0,0,0,0,0,0h0c-0.4,0.8-0.7,1.7-0.9,2.7
					c-0.2,1.2-0.2,2.4,0,3.7c0.2,1.3,0.5,2.4,1,3.5c0.5,1,1.1,1.9,1.8,2.7c0.4,0.4,0.8,0.7,1.2,1c1.6-0.2,3.1-1.1,4.2-2.3
					c0,0-0.1,0-0.1,0c-0.7,0.1-1.4,0-1.9-0.2c-0.6-0.3-1-0.6-1.4-1.2c-0.4-0.5-0.7-1.1-0.9-1.8c-0.2-0.7-0.4-1.4-0.5-2.1
					c-0.1-0.8-0.1-1.5-0.1-2.2c0-0.4,0.1-0.8,0.2-1.2c0-0.1,0-0.1,0.1-0.2c0,0,0,0,0,0c0-0.1,0-0.1,0.1-0.2c0,0,0,0,0-0.1
					c0,0,0-0.1,0.1-0.1c0-0.1,0.1-0.1,0.1-0.2c0.2-0.6,0.6-1.1,1.1-1.5c0.5-0.4,1.1-0.6,1.8-0.7c0,0,0.1,0,0.1,0l0,0
					c0.4,0,0.7,0,1.1,0.1c0.4,0.1,0.7,0.3,1.1,0.5c0.3,0.2,0.6,0.5,0.9,0.9c0,0,0,0,0,0c0,0,0,0,0,0c0.5,0.7,1.2,1,1.9,1l1.7-0.2
					C67.6,378.4,67.2,377.5,66.8,376.8z"/>
			</g>
		</g>
	</g>
	<g>
		<path class="st16" d="M249.6,258.7l102.7-76L221.1,221l19.2,35.6C242.1,260,246.5,260.9,249.6,258.7z"/>
		<path class="st16" d="M352.2,182.7l-148.5-24.2c-3.3-0.5-6,2.7-4.8,5.9l13.4,36L352.2,182.7z"/>
		<polygon class="st17" points="221.1,221 201.8,227.8 212.3,200.4 352.2,182.7 		"/>
		<polygon class="st18" points="224.8,227.7 201.8,227.8 221.1,221 		"/>
	</g>
</g>
</svg>
