<?xml version="1.0" encoding="UTF-8" standalone="no"?>
<svg width="13px" height="16px" viewBox="0 0 13 16" version="1.1" xmlns="http://www.w3.org/2000/svg" xmlns:xlink="http://www.w3.org/1999/xlink">
    <!-- Generator: Sketch 50 (54983) - http://www.bohemiancoding.com/sketch -->
    <title>Social/Youtube</title>
    <desc>Created with Sketch.</desc>
    <defs></defs>
    <g id="Social/Youtube" stroke="none" stroke-width="1" fill="none" fill-rule="evenodd">
        <path d="M8.12779018,10.5558036 L8.12779018,12.3219866 C8.12779018,12.6958724 8.0189743,12.8828125 7.80133929,12.8828125 C7.67299043,12.8828125 7.54743365,12.8214292 7.42466518,12.6986607 L7.42466518,10.1791295 C7.54743365,10.056361 7.67299043,9.99497768 7.80133929,9.99497768 C8.0189743,9.99497768 8.12779018,10.1819178 8.12779018,10.5558036 Z M10.9570312,10.5641741 L10.9570312,10.9492187 L10.203683,10.9492187 L10.203683,10.5641741 C10.203683,10.1847079 10.3292398,9.99497768 10.5803571,9.99497768 C10.8314745,9.99497768 10.9570312,10.1847079 10.9570312,10.5641741 Z M2.87109375,8.73939732 L3.76674107,8.73939732 L3.76674107,7.95256696 L1.15513393,7.95256696 L1.15513393,8.73939732 L2.03404018,8.73939732 L2.03404018,13.5022321 L2.87109375,13.5022321 L2.87109375,8.73939732 Z M5.28180804,13.5022321 L6.02678571,13.5022321 L6.02678571,9.3671875 L5.28180804,9.3671875 L5.28180804,12.53125 C5.11439648,12.7656262 4.9553579,12.8828125 4.8046875,12.8828125 C4.70424057,12.8828125 4.64564741,12.8242193 4.62890625,12.7070312 C4.62332586,12.6902901 4.62053571,12.5926348 4.62053571,12.4140625 L4.62053571,9.3671875 L3.87555804,9.3671875 L3.87555804,12.640067 C3.87555804,12.9135058 3.89787924,13.1171868 3.94252232,13.2511161 C4.00948694,13.4575903 4.17131568,13.5608259 4.42801339,13.5608259 C4.69587187,13.5608259 4.98046724,13.3906267 5.28180804,13.0502232 L5.28180804,13.5022321 Z M8.87276786,12.2633929 L8.87276786,10.6143973 C8.87276786,10.2070292 8.8476565,9.9308043 8.79743304,9.78571429 C8.70256649,9.47321272 8.50446579,9.31696429 8.203125,9.31696429 C7.92410575,9.31696429 7.66462174,9.46763242 7.42466518,9.76897321 L7.42466518,7.95256696 L6.6796875,7.95256696 L6.6796875,13.5022321 L7.42466518,13.5022321 L7.42466518,13.1004464 C7.67578251,13.4073676 7.93526652,13.5608259 8.203125,13.5608259 C8.50446579,13.5608259 8.70256649,13.4073676 8.79743304,13.1004464 C8.8476565,12.949776 8.87276786,12.670761 8.87276786,12.2633929 Z M11.7020089,12.1796875 L11.7020089,12.0708705 L10.9402902,12.0708705 C10.9402902,12.3554702 10.9347099,12.5256694 10.9235491,12.5814732 C10.8844864,12.7823671 10.7728804,12.8828125 10.5887277,12.8828125 C10.33203,12.8828125 10.203683,12.6902921 10.203683,12.3052455 L10.203683,11.5770089 L11.7020089,11.5770089 L11.7020089,10.7148437 C11.7020089,10.2739933 11.6266749,9.95033585 11.4760045,9.74386161 C11.2583694,9.45926197 10.9626135,9.31696429 10.5887277,9.31696429 C10.2092615,9.31696429 9.91071537,9.45926197 9.69308036,9.74386161 C9.53682958,9.95033585 9.45870536,10.2739933 9.45870536,10.7148437 L9.45870536,12.1629464 C9.45870536,12.6037968 9.53961973,12.9274543 9.70145089,13.1339286 C9.91908591,13.4185282 10.2204222,13.5608259 10.6054688,13.5608259 C11.0072565,13.5608259 11.3085927,13.4129479 11.5094866,13.1171875 C11.6099335,12.9665171 11.6685267,12.815849 11.6852679,12.6651786 C11.6964286,12.6149551 11.7020089,12.4531264 11.7020089,12.1796875 Z M6.61272321,4.53738839 L6.61272321,2.77957589 C6.61272321,2.39452932 6.49274674,2.20200893 6.25279018,2.20200893 C6.01283362,2.20200893 5.89285714,2.39452932 5.89285714,2.77957589 L5.89285714,4.53738839 C5.89285714,4.92801535 6.01283362,5.12332589 6.25279018,5.12332589 C6.49274674,5.12332589 6.61272321,4.92801535 6.61272321,4.53738839 Z M12.6311384,10.8236607 C12.6311384,12.1294708 12.5585945,13.1060235 12.4135045,13.7533482 C12.3353791,14.0825909 12.1735503,14.3588158 11.9280134,14.5820312 C11.6824765,14.8052467 11.3978811,14.9335936 11.0742187,14.9670759 C10.0474279,15.084264 8.49889428,15.1428571 6.42857143,15.1428571 C4.35824858,15.1428571 2.80971496,15.084264 1.78292411,14.9670759 C1.45926177,14.9335936 1.17327133,14.8052467 0.924944196,14.5820312 C0.676617062,14.3588158 0.516183398,14.0825909 0.443638393,13.7533482 C0.298548382,13.1283451 0.226004464,12.1517924 0.226004464,10.8236607 C0.226004464,9.51785061 0.298548382,8.54129788 0.443638393,7.89397321 C0.521763783,7.5647305 0.683592522,7.28850558 0.929129464,7.06529018 C1.17466641,6.84207478 1.46205193,6.7109377 1.79129464,6.671875 C2.81250511,6.5602673 4.35824858,6.50446429 6.42857143,6.50446429 C8.49889428,6.50446429 10.0474279,6.5602673 11.0742187,6.671875 C11.3978811,6.7109377 11.6838715,6.84207478 11.9321987,7.06529018 C12.1805258,7.28850558 12.3409595,7.5647305 12.4135045,7.89397321 C12.5585945,8.51897634 12.6311384,9.49552907 12.6311384,10.8236607 Z M4.27734375,0.142857143 L5.13113839,0.142857143 L4.11830357,3.48270089 L4.11830357,5.75111607 L3.28125,5.75111607 L3.28125,3.48270089 C3.20312461,3.0697524 3.03292542,2.47824046 2.77064732,1.70814732 C2.56417307,1.13336766 2.38281328,0.611609487 2.2265625,0.142857143 L3.11383929,0.142857143 L3.70814732,2.34430804 L4.27734375,0.142857143 Z M7.37444196,2.93024554 L7.37444196,4.39508929 C7.37444196,4.84710047 7.29631775,5.17633825 7.14006696,5.3828125 C6.92801233,5.66741214 6.63225636,5.80970982 6.25279018,5.80970982 C5.87890438,5.80970982 5.58593856,5.66741214 5.37388393,5.3828125 C5.21763315,5.17075787 5.13950893,4.84152009 5.13950893,4.39508929 L5.13950893,2.93024554 C5.13950893,2.48381473 5.21763315,2.1573671 5.37388393,1.95089286 C5.58593856,1.66629322 5.87890438,1.52399554 6.25279018,1.52399554 C6.63225636,1.52399554 6.92801233,1.66629322 7.14006696,1.95089286 C7.29631775,2.1573671 7.37444196,2.48381473 7.37444196,2.93024554 Z M10.1785714,1.57421875 L10.1785714,5.75111607 L9.41685268,5.75111607 L9.41685268,5.29073661 C9.12109227,5.63672048 8.83370675,5.80970982 8.5546875,5.80970982 C8.29798979,5.80970982 8.1333709,5.70647425 8.06082589,5.5 C8.01618281,5.36607076 7.99386161,5.15680946 7.99386161,4.87220982 L7.99386161,1.57421875 L8.75558036,1.57421875 L8.75558036,4.64620536 C8.75558036,4.83035806 8.75837051,4.92801334 8.76395089,4.93917411 C8.78069205,5.06194258 8.83928521,5.12332589 8.93973214,5.12332589 C9.09040254,5.12332589 9.24944113,5.00334941 9.41685268,4.76339286 L9.41685268,1.57421875 L10.1785714,1.57421875 Z" id="youtube---FontAwesome" fill="#757575"></path>
    </g>
</svg>